<?xml version="1.0" encoding="utf-8"?>
<!-- Generator: Adobe Illustrator 27.5.0, SVG Export Plug-In . SVG Version: 6.00 Build 0)  -->
<svg version="1.1" id="Capa_1" xmlns="http://www.w3.org/2000/svg" xmlns:xlink="http://www.w3.org/1999/xlink" x="0px" y="0px"
	 viewBox="0 0 2122 2122" style="enable-background:new 0 0 2122 2122;" xml:space="preserve">
<path style="fill:#EA5A25;" d="M978.787,883.028c-5.223,28.18-10.324,56.424-15.25,84.721
	c105.43,26.641,222.012,5.34,312.015-56.658c65.798-45.286,109.532-109.456,147.439-178.007
	c-4.648-20.663-10.458-41.018-17.332-60.852c-43.369-125.125-124.234-233.403-207.829-336.102
	c-15.664-19.279-36.132-40.399-58.972-63.006c-3.501-0.356-7.002-0.653-10.502-0.95c-26.997,70.187-50.075,141.856-68.29,215.961
	C1027.971,618.658,1003.289,750.901,978.787,883.028z"/>
<path style="fill:#EA5A25;" d="M854.125,1295.68c-11.464-1.476-22.933-3.015-34.399-4.706
	c-188.906-28.058-378.996-86.383-548.796-178.699c8.365,130.29,48.294,251.97,112.192,357.52
	c31.739-31.147,67.812-57.905,106.555-78.612C601.197,1331.485,727.881,1313.488,854.125,1295.68z"/>
<path style="fill:#EA5A25;" d="M884.512,937.313c9.316,4.984,18.867,9.437,28.538,13.53c7.296-42.602,15.008-85.081,22.901-127.381
	c25.63-137.052,49.835-274.874,88.636-408.954c14.121-48.711,29.725-97.598,48.414-145.12c-4.095-0.058-8.249-0.122-12.341-0.122
	c-142.567,0-276.297,37.676-391.81,103.649c14.475,74.816,11.391,157.461,13.823,226.874
	C687.718,741.708,757.072,869.084,884.512,937.313z"/>
<path style="fill:#EA5A25;" d="M873.357,1254.428c6.526-84.662,17.8-169.145,31.266-253.159
	c-26.105-9.846-51.378-22.426-75.288-37.851c-113.673-73.447-186.708-195.902-199.286-330.226
	c-6.29-66.684,1.484-152.891-10.146-229.9C408.396,545.328,269.268,786.736,269.268,1060.66c0,1.959,0,3.976,0.058,5.934
	c70.601,36.365,143.045,69.116,217.798,96.467C612.724,1208.981,742.419,1239.301,873.357,1254.428z"/>
<path style="fill:#EA5A25;" d="M1380.326,1055.559c47.795-76.648,62.331-168.867,52.991-259.464
	c-53.045,85.988-119.673,159.089-218.994,199.6c-82.468,33.579-173.659,40.936-258.974,21.004
	c-13.111,80.565-23.968,161.554-30.316,242.952c36,3.05,72.061,4.891,108.121,5.661
	C1171.215,1233.415,1306.662,1173.635,1380.326,1055.559z"/>
<path style="fill:#D84B23;" d="M1484.686,702.254c-16.002,32.297-32.867,63.844-51.369,93.841
	c9.34,90.597-5.196,182.816-52.991,259.464c-73.664,118.075-209.111,177.856-347.172,209.753
	c282.587,6.022,565.191-57.651,818.681-187.547c0.12-5.69,0.217-11.386,0.217-17.106c0-6.719-0.093-13.413-0.261-20.087
	c-0.056-2.212-0.163-4.409-0.236-6.616c-0.146-4.458-0.297-8.916-0.519-13.359c-0.132-2.631-0.312-5.252-0.471-7.878
	c-0.238-3.991-0.477-7.976-0.774-11.947c-0.209-2.811-0.46-5.608-0.702-8.404c-0.321-3.776-0.65-7.551-1.025-11.313
	c-0.287-2.875-0.607-5.744-0.926-8.614c-0.407-3.659-0.826-7.313-1.281-10.962c-0.363-2.909-0.75-5.807-1.145-8.706
	c-0.49-3.591-1.001-7.172-1.54-10.748c-0.436-2.909-0.884-5.812-1.355-8.706c-0.572-3.547-1.179-7.084-1.8-10.611
	c-0.507-2.889-1.016-5.774-1.554-8.648c-0.663-3.542-1.367-7.065-2.076-10.587c-0.57-2.831-1.133-5.662-1.732-8.477
	c-0.763-3.581-1.574-7.143-2.385-10.704c-0.621-2.729-1.225-5.466-1.875-8.186c-0.89-3.727-1.839-7.43-2.782-11.137
	c-0.641-2.519-1.255-5.052-1.92-7.566c-1.165-4.394-2.4-8.76-3.637-13.125c-0.509-1.793-0.982-3.601-1.503-5.389
	c-1.754-6.027-3.586-12.02-5.479-17.988c-0.777-2.441-1.608-4.862-2.407-7.294c-1.184-3.605-2.358-7.221-3.593-10.806
	c-0.935-2.719-1.924-5.413-2.889-8.117c-1.167-3.269-2.324-6.543-3.535-9.793c-1.042-2.806-2.126-5.593-3.201-8.38
	c-1.196-3.113-2.394-6.226-3.632-9.32c-1.13-2.831-2.295-5.647-3.457-8.463c-1.25-3.026-2.506-6.046-3.793-9.053
	c-1.208-2.821-2.436-5.627-3.673-8.433c-1.311-2.967-2.639-5.924-3.986-8.877c-1.276-2.796-2.567-5.588-3.878-8.365
	c-1.374-2.919-2.77-5.827-4.178-8.726c-1.343-2.762-2.692-5.525-4.066-8.268c-1.444-2.889-2.921-5.759-4.399-8.629
	c-1.403-2.719-2.799-5.433-4.231-8.132c-1.528-2.879-3.092-5.734-4.655-8.594c-1.442-2.636-2.875-5.286-4.346-7.908
	c-1.647-2.933-3.34-5.837-5.023-8.745c-1.449-2.505-2.877-5.023-4.353-7.508c-1.898-3.201-3.852-6.363-5.793-9.534
	c-1.32-2.158-2.609-4.331-3.949-6.475c-3.235-5.164-6.529-10.295-9.878-15.386c-1.372-2.085-2.794-4.136-4.185-6.207
	c-2.093-3.113-4.173-6.231-6.307-9.311c-1.588-2.295-3.22-4.555-4.835-6.835c-1.998-2.816-3.988-5.642-6.02-8.434
	c-1.69-2.319-3.415-4.614-5.13-6.913c-2.017-2.709-4.034-5.418-6.085-8.102c-1.759-2.295-3.542-4.57-5.325-6.85
	c-2.066-2.641-4.139-5.276-6.239-7.893c-1.815-2.26-3.649-4.502-5.488-6.743c-2.134-2.597-4.278-5.179-6.441-7.746
	c-1.849-2.197-3.712-4.38-5.583-6.553c-2.222-2.582-4.461-5.14-6.714-7.688c-1.868-2.114-3.742-4.224-5.632-6.319
	c-2.334-2.587-4.695-5.145-7.065-7.703c-1.856-2.003-3.712-4.01-5.593-5.998c-2.487-2.626-5.008-5.227-7.532-7.82
	c-1.813-1.861-3.613-3.737-5.442-5.583c-2.741-2.758-5.52-5.481-8.297-8.204c-1.367-1.335-2.718-2.685-4.092-4.01
	C1558.128,554.005,1519.507,632.017,1484.686,702.254z"/>
<path style="fill:#D84B23;" d="M1637.458,1215.982c-229.603,78.612-474.041,108.278-715.332,87.099
	c-0.355,6.11-0.711,12.278-1.008,18.393c-1.959,40.107-2.611,80.331-1.84,120.555c12.458,0.95,24.919,2.431,37.438,4.57
	c133.193,22.602,252.92,111.298,313.434,231.975c18.21,36.302,34.282,82.504,52.908,128.882c0.789-0.277,1.581-0.555,2.37-0.838
	c16.541-5.871,32.826-12.268,48.841-19.186c1.403-0.609,2.801-1.223,4.2-1.837c7.724-3.391,15.401-6.879,22.991-10.505l0.677-0.317
	c7.93-3.8,15.771-7.746,23.552-11.8c1.286-0.672,2.568-1.354,3.851-2.031c7.172-3.786,14.288-7.664,21.328-11.664
	c0.548-0.307,1.101-0.609,1.649-0.921c7.573-4.327,15.062-8.784,22.477-13.354c1.157-0.712,2.305-1.437,3.454-2.154
	c6.709-4.18,13.352-8.448,19.925-12.818c0.765-0.507,1.54-1.004,2.304-1.515c7.199-4.823,14.307-9.769,21.337-14.821
	c1.018-0.731,2.025-1.481,3.04-2.217c6.29-4.565,12.511-9.223,18.661-13.968c0.911-0.701,1.836-1.398,2.747-2.104
	c6.802-5.301,13.518-10.704,20.141-16.214c0.858-0.716,1.703-1.447,2.558-2.163c5.924-4.974,11.771-10.037,17.544-15.177
	c0.994-0.887,1.998-1.764,2.99-2.656c6.394-5.749,12.702-11.596,18.903-17.549c0.67-0.643,1.328-1.301,1.995-1.949
	c5.596-5.408,11.104-10.903,16.536-16.472c1.03-1.057,2.068-2.105,3.094-3.167c5.966-6.187,11.849-12.453,17.613-18.831
	c0.451-0.497,0.887-1.008,1.337-1.506c5.308-5.9,10.516-11.892,15.647-17.953c1.018-1.203,2.039-2.402,3.05-3.61
	c5.53-6.606,10.977-13.286,16.292-20.078l0.526-0.692c5.072-6.49,10.017-13.077,14.884-19.727c0.974-1.33,1.949-2.655,2.914-3.99
	c10.026-13.876,19.608-28.093,28.735-42.621c0.896-1.427,1.788-2.855,2.675-4.287c9.03-14.577,17.598-29.466,25.686-44.652
	c0.799-1.496,1.589-3.001,2.378-4.507c7.995-15.25,15.51-30.787,22.518-46.602c0.685-1.54,1.357-3.089,2.032-4.638
	c3.255-7.474,6.422-14.996,9.452-22.592c0.188-0.473,0.387-0.936,0.575-1.403c3.206-8.088,6.258-16.249,9.204-24.463
	c0.56-1.564,1.105-3.133,1.656-4.702c2.626-7.469,5.155-14.977,7.559-22.543c0.27-0.848,0.558-1.686,0.824-2.533
	c2.619-8.331,5.084-16.726,7.43-25.174c0.427-1.535,0.831-3.079,1.25-4.619c2.039-7.517,3.976-15.079,5.798-22.685
	c0.28-1.169,0.58-2.333,0.855-3.503c2.005-8.541,3.861-17.135,5.586-25.778c0.3-1.506,0.575-3.021,0.868-4.526
	c1.471-7.606,2.833-15.245,4.085-22.928c0.234-1.438,0.487-2.87,0.714-4.307c1.374-8.741,2.606-17.525,3.693-26.354
	c0.176-1.417,0.322-2.84,0.487-4.253c0.908-7.742,1.703-15.517,2.387-23.323c0.092-1.062,0.195-2.124,0.282-3.187
	C1780.708,1161.527,1709.943,1191.13,1637.458,1215.982z"/>
<path style="fill:#D84B23;" d="M1197.829,336.13c83.595,102.699,164.46,210.977,207.829,336.102
	c6.874,19.834,12.685,40.19,17.332,60.852c32.709-59.157,61.079-121.578,95.512-177.968c18.427-30.159,40.054-60.613,64.755-88.531
	c-3.112-2.73-6.155-5.538-9.306-8.224c-0.884-0.755-1.759-1.515-2.646-2.266c-2.901-2.456-5.832-4.877-8.767-7.289
	c-1.277-1.048-2.55-2.095-3.832-3.133c-2.826-2.289-5.663-4.56-8.521-6.811c-1.398-1.106-2.806-2.202-4.217-3.298
	c-2.848-2.212-5.7-4.419-8.577-6.592c-1.355-1.023-2.724-2.031-4.083-3.045c-2.991-2.231-5.983-4.463-9.004-6.65l-0.886-0.633
	c-6.641-4.794-13.372-9.472-20.166-14.066c-1.486-1.003-2.962-2.022-4.453-3.015c-2.685-1.788-5.393-3.542-8.1-5.296
	c-1.942-1.257-3.883-2.523-5.839-3.766c-2.594-1.651-5.206-3.284-7.822-4.901c-2.107-1.306-4.217-2.606-6.336-3.888
	c-2.563-1.559-5.133-3.108-7.718-4.633c-2.227-1.32-4.468-2.616-6.709-3.912c-2.519-1.457-5.033-2.918-7.566-4.346
	c-2.49-1.403-4.996-2.772-7.5-4.146c-2.331-1.281-4.651-2.582-6.994-3.839c-4.604-2.47-9.237-4.892-13.895-7.275
	c-2.171-1.111-4.363-2.178-6.544-3.269c-2.826-1.413-5.647-2.821-8.492-4.2c-2.309-1.121-4.633-2.212-6.955-3.308
	c-2.765-1.306-5.537-2.607-8.321-3.883c-2.326-1.067-4.663-2.119-7.004-3.167c-2.86-1.277-5.732-2.533-8.609-3.776
	c-2.271-0.984-4.541-1.964-6.821-2.924c-3.133-1.32-6.285-2.606-9.437-3.888c-2.042-0.828-4.073-1.671-6.124-2.484
	c-4.763-1.885-9.545-3.727-14.354-5.525c-1.338-0.497-2.682-0.979-4.024-1.476c-4.295-1.579-8.605-3.133-12.936-4.638
	c-1.995-0.692-4.005-1.355-6.007-2.032c-3.377-1.145-6.758-2.281-10.159-3.382c-2.195-0.707-4.399-1.398-6.601-2.09
	c-3.269-1.028-6.543-2.037-9.832-3.021c-2.227-0.663-4.458-1.325-6.694-1.973c-3.386-0.984-6.787-1.934-10.193-2.87
	c-2.107-0.58-4.212-1.174-6.329-1.735c-4.005-1.067-8.029-2.09-12.061-3.094c-1.51-0.375-3.013-0.774-4.526-1.145
	c-5.503-1.335-11.028-2.616-16.573-3.839c-1.569-0.341-3.152-0.658-4.724-0.994c-4.046-0.867-8.097-1.715-12.166-2.519
	c-2.126-0.419-4.261-0.809-6.392-1.213c-3.574-0.677-7.155-1.334-10.745-1.958c-2.251-0.395-4.504-0.775-6.76-1.15
	c-3.564-0.59-7.135-1.15-10.716-1.691c-2.21-0.336-4.419-0.672-6.636-0.989c-3.866-0.555-7.745-1.062-11.628-1.559
	c-1.902-0.243-3.798-0.502-5.703-0.731c-5.783-0.697-11.581-1.345-17.4-1.915C1161.698,295.731,1182.165,316.851,1197.829,336.13z"
	/>
<path style="fill:#D84B23;" d="M597.477,1557.307c74.399-69.656,170.217-110.948,270.068-115.932
	c-0.95-47.878,0.178-95.757,2.906-143.635c-5.442-0.648-10.884-1.364-16.326-2.061c-126.243,17.808-252.928,35.805-364.448,95.503
	c-38.743,20.707-74.816,47.464-106.555,78.612c4.709,7.785,9.576,15.469,14.546,23.079c1.262,1.934,2.582,3.825,3.859,5.744
	c3.749,5.632,7.54,11.235,11.43,16.765c1.644,2.343,3.338,4.648,5.007,6.972c3.62,5.028,7.276,10.027,11.011,14.972
	c1.878,2.484,3.783,4.95,5.693,7.415c3.632,4.692,7.315,9.345,11.052,13.954c2.044,2.524,4.095,5.038,6.171,7.537
	c3.727,4.483,7.518,8.911,11.342,13.311c2.151,2.475,4.288,4.97,6.47,7.415c3.927,4.409,7.931,8.741,11.951,13.057
	c2.158,2.314,4.283,4.668,6.468,6.958c4.584,4.803,9.264,9.51,13.966,14.197c2.46,2.455,4.916,4.911,7.408,7.337
	c5.374,5.218,10.799,10.382,16.322,15.449c0.514,0.473,1.05,0.926,1.569,1.398C545.769,1613.809,568.719,1584.284,597.477,1557.307z
	"/>
<path style="fill:#D84B23;" d="M892.344,1682.964c-12.399-63.839-19.698-127.912-23.02-192.107
	c-117.591,5.34-231.028,68.468-297.417,166.183c-3.849,5.686-7.52,11.43-11.016,17.233l0.967,0.809
	c3.567,2.899,7.204,5.705,10.821,8.541c3.057,2.397,6.08,4.843,9.176,7.196c3.187,2.426,6.443,4.765,9.669,7.143
	c3.596,2.65,7.157,5.34,10.797,7.927c2.648,1.886,5.354,3.688,8.024,5.54c4.29,2.972,8.558,5.978,12.906,8.867
	c1.644,1.092,3.33,2.124,4.984,3.201c32.305,21.121,66.234,39.951,101.584,56.244c1.237,0.57,2.451,1.179,3.693,1.744
	c5.525,2.509,11.121,4.891,16.711,7.279c2.271,0.969,4.512,1.993,6.792,2.943c5.008,2.08,10.078,4.034,15.138,6.017
	c2.928,1.149,5.83,2.348,8.775,3.464c4.641,1.754,9.337,3.386,14.017,5.057c3.432,1.223,6.843,2.495,10.294,3.668
	c4.331,1.476,8.714,2.84,13.077,4.244c3.874,1.247,7.73,2.533,11.63,3.717c4.044,1.233,8.137,2.358,12.207,3.523
	c4.287,1.232,8.558,2.495,12.874,3.649c3.766,1.009,7.566,1.925,11.354,2.88c4.694,1.188,9.381,2.392,14.107,3.493
	c3.473,0.809,6.979,1.53,10.47,2.295c5.106,1.111,10.204,2.236,15.345,3.255c3.186,0.628,6.399,1.179,9.6,1.773
	c5.505,1.014,11.011,2.027,16.555,2.933c0.661,0.107,1.33,0.195,1.993,0.302C916.599,1789.658,902.724,1736.162,892.344,1682.964z"
	/>
<path style="fill:#D84B23;" d="M1235.919,1734.048c-56.185-130.879-170.63-227.171-314.92-241.768
	c3.856,76.122,13.35,151.941,30.2,226.402c10.2,44.833,23.125,88.18,38.838,130.163c3.776,0.336,7.551,0.667,11.342,0.945
	c3.235,0.244,6.473,0.482,9.72,0.682c6.385,0.395,12.789,0.721,19.216,0.96c2.295,0.088,4.594,0.166,6.894,0.234
	c7.795,0.229,15.603,0.39,23.452,0.39c8.198,0,16.356-0.166,24.492-0.414c2.436-0.073,4.865-0.181,7.296-0.278
	c5.983-0.234,11.946-0.536,17.895-0.906c2.417-0.151,4.838-0.288,7.25-0.458c8.003-0.57,15.985-1.218,23.92-2.022l0.548-0.063
	c7.815-0.799,15.586-1.744,23.33-2.767c2.404-0.317,4.796-0.667,7.194-1.008c5.793-0.819,11.567-1.701,17.318-2.646
	c2.341-0.385,4.687-0.76,7.021-1.164c7.798-1.354,15.569-2.782,23.286-4.365l0.229-0.049c7.674-1.573,15.293-3.289,22.882-5.086
	c2.224-0.521,4.441-1.077,6.658-1.622c5.72-1.403,11.413-2.87,17.081-4.395c1.36-0.37,2.724-0.73,4.081-1.105
	C1259.52,1793.755,1248.548,1763.461,1235.919,1734.048z"/>
<path style="fill:#1A1A1A;" d="M1033.154,1265.313c-36.061-0.77-72.121-2.611-108.121-5.661
	c6.348-81.398,17.206-162.387,30.316-242.952c85.315,19.932,176.506,12.575,258.974-21.004
	c99.32-40.511,165.949-113.612,218.994-199.6c18.502-29.997,35.367-61.544,51.369-93.841
	c34.821-70.237,73.442-148.249,125.467-211.074l0.015-0.02l-0.936-0.882c-2.546-2.451-5.138-4.862-7.723-7.279
	c-1.754-1.647-3.488-3.308-5.261-4.936c-4.259-3.907-8.553-7.776-12.897-11.586c-0.032,0.035-0.061,0.072-0.093,0.107
	c-24.701,27.918-46.328,58.372-64.755,88.531c-34.433,56.389-62.803,118.811-95.512,177.968
	c-37.907,68.551-81.642,132.721-147.439,178.007c-90.003,61.998-206.584,83.298-312.015,56.658
	c4.926-28.297,10.027-56.541,15.25-84.721c24.502-132.127,49.184-264.37,81.279-394.893c18.214-74.104,41.293-145.773,68.29-215.961
	c-18.275-1.603-36.726-2.548-55.354-2.787c-18.689,47.522-34.293,96.409-48.414,145.12
	c-38.802,134.08-63.006,271.902-88.636,408.954c-7.893,42.299-15.605,84.779-22.901,127.381c-9.671-4.092-19.223-8.546-28.538-13.53
	c-127.439-68.229-196.794-195.605-201.839-337.524c-2.432-69.413,0.653-152.058-13.823-226.874
	c-16.731,9.554-33.047,19.698-48.947,30.377c11.63,77.009,3.857,163.216,10.146,229.9
	c12.577,134.324,85.613,256.779,199.286,330.226c23.91,15.425,49.184,28.005,75.288,37.851
	c-13.466,84.015-24.74,168.497-31.266,253.159c-130.938-15.128-260.634-45.447-386.233-91.367
	c-74.753-27.352-147.196-60.102-217.798-96.467c0.061,15.367,0.653,30.553,1.603,45.681
	c169.8,92.317,359.89,150.641,548.796,178.699c11.466,1.691,22.935,3.23,34.399,4.706c5.442,0.697,10.884,1.413,16.326,2.061
	c-2.728,47.878-3.856,95.756-2.906,143.635c-99.851,4.984-195.668,46.275-270.068,115.932
	c-28.758,26.977-51.708,56.502-70.092,88.048l-0.034,0.054c5.286,4.799,10.636,9.535,16.042,14.207l0.458,0.405
	c5.603,4.838,11.274,9.607,17.021,14.28l0.019-0.029c3.496-5.803,7.167-11.547,11.016-17.233
	c66.39-97.715,179.827-160.842,297.417-166.183c3.323,64.195,10.621,128.268,23.02,192.107
	c10.38,53.198,24.256,106.694,42.107,159.011l0.017,0.053c2.297,0.37,4.621,0.638,6.923,0.989c5.756,0.877,11.52,1.729,17.318,2.475
	c3.557,0.458,7.135,0.843,10.709,1.252c5.941,0.677,11.888,1.34,17.878,1.876c0.926,0.078,1.834,0.209,2.763,0.287l-0.022-0.063
	c-15.713-41.983-28.638-85.33-38.838-130.163c-16.85-74.46-26.344-150.28-30.2-226.402
	c144.29,14.597,258.735,110.889,314.92,241.768c12.629,29.413,23.601,59.707,35.221,89.656l0.019,0.048
	c0.755-0.21,1.493-0.453,2.249-0.663c16.005-4.482,31.81-9.413,47.371-14.83c0.76-0.268,1.535-0.497,2.295-0.765l-0.015-0.039
	c-18.626-46.378-34.699-92.58-52.908-128.882c-60.514-120.677-180.241-209.374-313.434-231.975
	c-12.519-2.139-24.98-3.62-37.438-4.57c-0.772-40.224-0.119-80.448,1.84-120.555c0.297-6.115,0.653-12.282,1.008-18.393
	c241.291,21.179,485.729-8.487,715.332-87.099c72.485-24.852,143.25-54.455,211.758-88.492l0.046-0.024
	c0.058-0.697,0.088-1.408,0.144-2.105c0.551-6.831,1.018-13.681,1.398-20.56c0.046-0.819,0.114-1.637,0.156-2.456
	c0.4-7.644,0.677-15.318,0.855-23.025c0.012-0.526,0.046-1.048,0.058-1.574l-0.039,0.019
	C1598.345,1207.661,1315.741,1271.335,1033.154,1265.313z"/>
<path style="fill:#F18B6C;" d="M567.119,646.215c-1.756-21.496-15.635-43.503-36.779-47.766
	c-16.524-3.333-33.269,4.57-46.977,14.382c-49.308,35.284-74.735,94.305-97.788,150.387
	c-24.178,58.816-49.406,119.756-53.405,183.985c-2.449,39.299,18.231,122.411,73.032,84.589
	c40.373-27.864,53.035-107.898,70.887-150.104c24.585-58.124,53.187-114.47,76.97-172.945
	C561.185,688.763,568.875,667.715,567.119,646.215z"/>
<path style="fill:#F18B6C;" d="M790.943,412.452c29.179-6.573,56.97-28.41,85.223-39.352c29.133-11.279,59.866-19.352,89.786-28.297
	c8.044-2.402,6.448-14.329-1.971-14.568c-34.796-0.984-66.555,5.374-99.532,16.448c-27.754,9.325-66.809,21.408-85.954,44.384
	C770.412,400.773,777.915,415.385,790.943,412.452z"/>
<path style="fill:#F18B6C;" d="M375.392,1240.791c-4.487-6.509-16.436-6.689-18.299,2.387c-3.868,18.865,3.817,40.794,10.424,58.509
	c5.562,14.924,13.048,38.09,28.256,45.204c3.359,1.569,7.698,0.439,8.716-3.547c3.892-15.284-6.015-34.212-10.56-48.935
	C388.627,1277.24,385.57,1255.549,375.392,1240.791z"/>
<path style="fill:#BF3518;" d="M1695.985,971.642c9.698,0,18.989-8.526,18.541-18.539c-0.451-10.046-8.146-18.543-18.541-18.543
	c-9.698,0-18.989,8.531-18.541,18.543C1677.894,963.15,1685.59,971.642,1695.985,971.642z"/>
<path style="fill:#BF3518;" d="M1588.577,812.831c-3.873,3.873-6.4,10.85-4.292,16.234c0.204,0.521,0.405,1.043,0.612,1.564
	c1.978,4.94,4.538,7.503,9.481,9.476c6.073,2.431,13.142,0.974,17.797-3.678c8.88-8.877,4.743-24.556-7.364-27.888
	C1599.069,806.955,1592.783,808.622,1588.577,812.831z"/>
<path style="fill:#BF3518;" d="M1513.729,1041.732c-20.519,0-20.553,31.888,0,31.888
	C1534.248,1073.62,1534.282,1041.732,1513.729,1041.732z"/>
<path style="fill:#BF3518;" d="M1289.644,711.17c7.856,0,15.381-6.909,15.018-15.016c-0.365-8.137-6.599-15.02-15.018-15.02
	c-7.854,0-15.381,6.908-15.019,15.02C1274.991,704.291,1281.225,711.17,1289.644,711.17z"/>
<path style="fill:#BF3518;" d="M1200.012,589.041c19.802,0,19.834-30.777,0-30.777
	C1180.207,558.264,1180.175,589.041,1200.012,589.041z"/>
<path style="fill:#BF3518;" d="M1143.242,780.446c8.146,0,15.951-7.162,15.573-15.576c-0.377-8.434-6.842-15.571-15.573-15.571
	c-8.147,0-15.949,7.162-15.574,15.571C1128.046,773.308,1134.512,780.446,1143.242,780.446z"/>
<path style="fill:#BF3518;" d="M852.594,687.438c5.194-2.192,7.691-6.743,8.208-12.2c0.309-3.279-0.146-6.129-1.377-9.174
	c-1.452-3.581-3.094-6.5-6.561-8.531c-3.059-1.788-7.571-2.548-11.001-1.437c-7.423,2.402-12.017,9.822-9.971,17.559
	c0.565,2.144,1.031,4.224,2.18,6.192c0.996,1.701,2.58,3.343,3.939,4.833C841.606,688.617,847.898,689.421,852.594,687.438z"/>
<path style="fill:#BF3518;" d="M847.452,547.214c8.049,0,15.761-7.08,15.388-15.391c-0.373-8.336-6.762-15.386-15.388-15.386
	c-8.049,0-15.761,7.079-15.389,15.386C832.436,540.164,838.824,547.214,847.452,547.214z"/>
<path style="fill:#BF3518;" d="M581.538,989.269c-22.665,0-22.704,35.225,0,35.225
	C604.205,1024.495,604.242,989.269,581.538,989.269z"/>
<path style="fill:#BF3518;" d="M733.915,1110.585c13.194,0,20.907-14.412,14.729-25.667l-0.414-0.75
	c-5.917-10.782-22.712-10.782-28.629,0l-0.414,0.75C713.011,1096.173,720.721,1110.585,733.915,1110.585z"/>
<path style="fill:#BF3518;" d="M683.123,952.256c7.371,0,14.431-6.48,14.09-14.09c-0.341-7.635-6.19-14.09-14.09-14.09
	c-7.372,0-14.431,6.48-14.09,14.09C669.374,945.8,675.223,952.256,683.123,952.256z"/>
<path style="fill:#BF3518;" d="M1088.36,1142.823l-0.838-0.56c-3.881-2.597-10.166-2.597-14.046,0l-0.838,0.56
	c-5.781,3.873-9.081,10.597-7.157,17.588c1.749,6.353,8.234,11.737,15.018,11.435c6.283-0.283,11.764-3.727,14.231-9.574
	C1097.859,1154.862,1094.887,1147.194,1088.36,1142.823z"/>
<path style="fill:#BF3518;" d="M1229.887,1077.376c-6.884,0-13.481,6.056-13.162,13.165c0.319,7.133,5.783,13.165,13.162,13.165
	c6.887,0,13.484-6.056,13.164-13.165C1242.733,1083.408,1237.269,1077.376,1229.887,1077.376z"/>
<path style="fill:#BF3518;" d="M1421.108,551.126c20.996,0,21.03-32.629,0-32.629
	C1400.112,518.497,1400.075,551.126,1421.108,551.126z"/>
<path style="fill:#BF3518;" d="M1340.682,422.776c8.536,0,16.711-7.503,16.317-16.312c-0.397-8.843-7.169-16.317-16.317-16.317
	c-8.534,0-16.709,7.503-16.315,16.317C1324.762,415.302,1331.537,422.776,1340.682,422.776z"/>
<path style="fill:#BF3518;" d="M1628.33,666.663c3.07,4.706,8.633,7.337,14.236,5.793c5.14-1.413,9.503-6.665,9.257-12.156
	c-0.229-5.087-3.016-9.525-7.752-11.523c-5.941-2.509-12.273-0.161-15.742,5.16l-0.55,0.843c-2.03,3.114-2.03,7.927,0,11.04
	L1628.33,666.663z"/>
<path style="fill:#BF3518;" d="M1638.739,1437.6c-1.544-1.096-3.505-1.681-5.252-2.397c-5.138-2.115-11.99,0.453-15.679,4.141
	c-4.097,4.097-5.613,10.1-4.143,15.679c0.484,1.846,1.349,3.722,2.243,5.408c5.074,9.574,18.862,10.718,26.207,3.377
	c3.025-3.026,4.887-7.522,4.887-11.801C1647.003,1445.722,1643.658,1441.093,1638.739,1437.6z"/>
<path style="fill:#BF3518;" d="M1562.281,1312.504c-3.712-1.564-8.211-2.212-12.168-0.979c-5.815,0.565-11.381,4.57-14.239,9.447
	c-3.126,5.34-4.039,14.114,0,19.357c1.12,1.452,2.085,3.04,3.393,4.327c2.516,2.485,5.576,4.058,8.909,5.062
	c5.155,1.549,11.218,0.551,15.839-2.1c4.456-2.558,7.973-6.948,9.364-11.912c1.54-5.496,0.365-10.524-2.054-15.464
	C1569.563,1316.645,1565.824,1313.999,1562.281,1312.504z"/>
<path style="fill:#BF3518;" d="M1385.254,1460.25c-27.917,0-27.963,43.386,0,43.386
	C1413.169,1503.636,1413.215,1460.25,1385.254,1460.25z"/>
<path style="fill:#BF3518;" d="M1474.44,1589.872c-0.45-0.307-0.901-0.619-1.352-0.926c-5.786-3.976-15.386-2.514-20.07,2.587
	c-1.942,2.115-3.377,4.575-4.261,7.308c-1.196,3.703-0.563,9.515,1.671,12.765l0.928,1.35c3.318,4.828,8.375,8.633,14.568,8.356
	c4.475-0.2,8.701-1.71,11.929-4.941c3.06-3.059,4.943-7.605,4.943-11.932C1482.796,1598.155,1479.446,1593.312,1474.44,1589.872z"/>
<path style="fill:#BF3518;" d="M1197.023,1380.299c-23.142,0-23.181,35.97,0,35.97
	C1220.168,1416.27,1220.204,1380.299,1197.023,1380.299z"/>
<path style="fill:#BF3518;" d="M1141.907,1732.513c-1.718,0.302-3.501,0.497-5.189,0.926c-2.794,0.707-5.001,2.105-7.281,3.747
	c-5.111,3.688-8.183,8.706-7.303,15.245c0.806,6.003,5.067,11.026,10.96,12.721c4.141,1.194,7.605,1.55,12.007,0.882
	c1.929-0.292,3.851-0.643,5.778-0.979c3.937-0.687,8.139-4.434,10.083-7.756c2.114-3.615,3.011-8.945,1.7-12.999
	C1159.627,1734.915,1151.247,1730.881,1141.907,1732.513z"/>
<path style="fill:#BF3518;" d="M1020.743,1747.568c-6.399,0-12.531,5.632-12.236,12.239c0.297,6.631,5.376,12.239,12.236,12.239
	c6.402,0,12.534-5.632,12.237-12.239C1032.682,1753.175,1027.603,1747.568,1020.743,1747.568z"/>
<path style="fill:#BF3518;" d="M1029.708,1580.484c-9.408,0-18.419,8.268-17.986,17.983c0.436,9.744,7.903,17.983,17.986,17.983
	c9.406,0,18.419-8.273,17.983-17.983C1047.254,1588.723,1039.788,1580.484,1029.708,1580.484z"/>
<path style="fill:#BF3518;" d="M793.876,1610.964c0.095-0.482,0.19-0.965,0.282-1.447c1.335-6.836,0.183-13.486-4.911-18.577
	c-5.094-5.096-11.744-6.246-18.58-4.911c-0.482,0.093-0.964,0.185-1.447,0.283c-6.704,1.306-12.253,7.659-13.998,13.997
	c-1.9,6.899,0.1,14.446,5.155,19.503c5.052,5.052,12.604,7.05,19.501,5.15C786.217,1623.217,792.57,1617.668,793.876,1610.964z"/>
<path style="fill:#BF3518;" d="M700.29,1657.463c-14.039-3.868-27.357,9.452-23.491,23.488c1.766,6.421,6.918,11.571,13.337,13.34
	c3.384,0.906,6.768,0.906,10.154,0c3.235-0.906,6.044-2.543,8.427-4.911c3.863-2.991,5.252-7.488,5.537-12.209
	C714.792,1668.221,709.004,1659.86,700.29,1657.463z"/>
<path style="fill:#BF3518;" d="M805.623,1714.374c-9.698,0-18.989,8.531-18.541,18.543c0.451,10.047,8.146,18.538,18.541,18.538
	c9.698,0,18.989-8.526,18.541-18.538C823.713,1722.871,816.017,1714.374,805.623,1714.374z"/>
<path style="fill:#BF3518;" d="M700.078,1423.563c3.54,2.28,10.295,3.473,14.314,1.871c4.448-1.774,7.581-3.24,10.663-7.231
	c2.735-3.542,4.402-7.761,4.349-12.326c-0.059-5.023-2.095-10.09-5.615-13.69c-3.895-3.976-8.59-5.252-13.895-5.744
	c-1.627,0.219-3.254,0.438-4.879,0.658c-2.39,0.57-4.47,1.661-6.244,3.284c-3.033,2.343-5.7,5.69-6.577,9.534
	c-0.171,0.745-0.251,1.486-0.339,2.227c-0.283,0.911-0.507,1.866-0.646,2.909c-0.531,3.956-0.027,8.385,2.205,11.844
	C695.146,1419.583,697.391,1421.829,700.078,1423.563z"/>
<path style="fill:#BF3518;" d="M545.684,1508.888c9.408,0,18.419-8.273,17.985-17.983c-0.436-9.744-7.903-17.983-17.985-17.983
	c-9.405,0-18.419,8.268-17.982,17.983C528.137,1500.65,535.603,1508.888,545.684,1508.888z"/>
<path style="fill:#BF3518;" d="M512.624,1301.576c8.77-5.13,13.074-15.985,10.48-25.754l-0.183-0.682
	c-1.359-5.126-5.435-10.738-10.187-13.247c-4.943-2.612-11.644-4.39-17.082-2.237l-0.602,0.239
	c-3.766,1.491-7.042,3.094-10.063,5.866c-3.663,3.362-5.627,8.307-6.27,13.091c-1.162,8.648,2.836,18.47,10.886,22.724
	C496.731,1305.342,505.525,1305.727,512.624,1301.576z"/>
<path style="fill:#BF3518;" d="M558.583,851.457c-0.3,4.843,2.019,10.636,5.552,13.988c5.064,4.799,11.503,6.646,18.422,4.974
	c6.913-1.676,11.971-8.156,12.884-14.958c0.955-7.113-2.28-13.569-8.129-17.583c-1.299-1.086-2.707-1.988-4.329-2.519
	c-3.5-1.476-7.754-2.09-11.469-0.887C563.786,836.972,559.077,843.399,558.583,851.457z"/>
<path style="fill:#BF3518;" d="M1382.265,1155.432c-16.463,0-16.489,25.583,0,25.583
	C1398.73,1181.015,1398.757,1155.432,1382.265,1155.432z"/>
<path style="fill:#BF3518;" d="M1716.898,1268.967c-16.463,0-16.49,25.588,0,25.588
	C1733.361,1294.555,1733.39,1268.967,1716.898,1268.967z"/>
<path style="fill:#BF3518;" d="M1147.522,438.6c1.902,2.465,4.621,4.633,7.741,5.345c6.787,1.544,12.96-1.164,16.835-6.85
	c2.963-4.351,2.811-10.134,0.855-14.777c-2.684-6.358-8.046-9.155-14.682-9.769c-3.666-0.336-8.236,1.944-10.75,4.453
	c-2.636,2.641-4.621,6.967-4.453,10.753c0.151,3.396,1.491,6.772,3.6,9.51L1147.522,438.6z"/>
<path style="fill:#BF3518;" d="M1047.467,896.222l-1.009,1.403c-3.094,4.293-2.545,10.996,0,15.347
	c2.707,4.623,7.766,7.527,13.128,7.527c5.359,0,10.422-2.904,13.126-7.527c2.548-4.351,3.094-11.055,0-15.347l-1.009-1.403
	c-2.972-4.122-6.804-6.948-12.117-6.948C1054.271,889.274,1050.438,892.1,1047.467,896.222z"/>
<path style="fill:#BF3518;" d="M856.414,797.104c-8.147,0-15.949,7.162-15.574,15.571c0.378,8.438,6.843,15.576,15.574,15.576
	c8.146,0,15.951-7.162,15.573-15.576C871.611,804.237,865.145,797.104,856.414,797.104z"/>
<path style="fill:#BF3518;" d="M742.88,573.732c3.71-0.166,8.2-1.349,10.619-4.399c1.411-1.779,2.729-3.372,3.613-5.466
	c0.86-2.036,1.245-4.122,1.301-6.349c0.195-7.605-6.728-14.534-14.339-14.339c-4.982,0.132-8.08,1.954-11.813,4.916
	c-2.814,2.232-4.399,7.211-4.399,10.622c0,3.683,1.637,8.083,4.399,10.616C735.121,571.959,738.88,573.913,742.88,573.732z"/>
<path style="fill:#BF3518;" d="M1296.219,1553.707l-0.6,0.068c-3.225,0.365-6.078,0.897-8.982,2.431
	c-3.376,1.783-5.842,5.091-7.283,8.511c-2.663,6.31-1.573,14.621,3.681,19.445c4.623,4.244,11.14,6.275,17.318,4.575
	c3.744-1.028,6.899-3.338,9.245-6.378c2.597-3.362,3.34-6.544,3.822-10.782l0.066-0.599c0.448-3.937-2.215-9.603-5.057-12.21
	C1305.276,1555.87,1300.672,1553.205,1296.219,1553.707z"/>
<path style="fill:#BF3518;" d="M1005.805,1366.496c-10.378,0-20.319,9.12-19.839,19.834c0.482,10.748,8.716,19.839,19.839,19.839
	c10.375,0,20.317-9.125,19.837-19.839C1025.162,1375.583,1016.926,1366.496,1005.805,1366.496z"/>
</svg>
