<svg xmlns="http://www.w3.org/2000/svg" xmlns:xlink="http://www.w3.org/1999/xlink" version="1.1" x="0px" y="0px" enable-background="new 0 0 256 256" xml:space="preserve" viewBox="10 9.01 236 238.09">
<metadata> Svg Vector Icons : http://www.onlinewebfonts.com/icon </metadata>
<g><g><g><path fill="#000000" d="M116,9.7c-37.2,5.2-73,29.6-90.9,62C18.4,83.5,14.1,96,11.2,111.3c-1,5.5-1.2,7.8-1.2,19.9c0,15.2,0.4,18.8,3.1,29.3c4.6,17.6,10.4,29.8,20.7,43.5c11.1,14.7,23.1,24.7,39.4,32.7c7.9,3.8,10.8,4.9,18.9,6.7c13.3,3,19.9,3.6,35,3.7c15,0,18.4-0.3,29-2.8c8.6-2,14.3-4.1,22.8-8.3c12.6-6.2,22.9-13.7,32.7-24c17.3-18.1,28.3-39.9,32.9-65.4c1.6-8.9,2-26,0.8-35.4c-4.1-31.8-20.6-60.5-45.9-79.5C183.8,19.8,165.5,12.4,145,9.6C138.2,8.8,122.6,8.8,116,9.7z M141.1,13.6c14.7,1.7,28.3,6,44.4,14l5,2.5l0.4,4.8c0.2,2.6,0.5,5.9,0.6,7.1l0.3,2.3l-10.8,5.3c-5.9,2.9-12,5.7-13.5,6.2l-2.6,0.9l-16.5-3.9c-9.1-2.2-20-4.7-24.3-5.6l-7.8-1.7l-2-3.9c-1.9-3.6-8.8-15.3-10.2-17.3c-0.5-0.6-0.2-1.5,1.4-4.3c1-1.9,2.5-3.8,3.1-4.2c1.1-0.7,7.4-1.9,13-2.4C125.9,13,136.6,13.1,141.1,13.6z M100.3,19.8c-0.9,1.6-1.8,2.3-3.5,2.9c-7.9,2.9-16.9,6.6-24.4,9.9c-4.7,2.1-9.4,4.2-10.4,4.6L60.3,38l1-1c2.2-2.3,12.7-9.1,17.2-11.3c4.2-2,20.8-7.9,22.4-8C101.2,17.7,101.1,18.4,100.3,19.8z M199.6,37.4c7.4,5.6,17,15.9,22.7,24.3c3.3,4.9,7.8,13.4,7.2,13.7c-0.2,0.2-1.1,0.4-1.9,0.6c-1.5,0.3-1.9,0-8.5-7.3c-3.8-4.2-10.7-11.1-15.2-15.5l-8.2-7.9l-0.3-5.5C195,33.4,194.7,33.6,199.6,37.4z M50.9,50.5c-3.6,7.4-5.4,13.6-6.5,21.9l-0.6,4.7L32.8,93.9c-6,9.3-11.6,17.9-12.4,19.3c-1.2,1.9-1.9,2.4-3.3,2.7c-1,0.2-1.9,0.2-2,0.1c-0.5-0.5,2.3-12,4.4-18.5c4-12.5,8.5-22.7,13.4-30.3c5.5-8.7,18.5-23.6,20.6-23.6C54.1,43.6,53.7,44.7,50.9,50.5z M139,55.3c11.7,2.7,21.6,5.1,22,5.3c1.3,0.7,9.8,25.5,12.5,36.8l1.6,6.4l-5.3,6.1c-3,3.3-10.4,11.1-16.5,17.4l-11.1,11.3l-8-1.7c-11-2.2-25.4-5.9-32.6-8.4c-3.3-1.1-6-2.1-6.1-2.2c-0.3-0.3-7.5-28.3-9.2-36.1l-2-8.5l16-15.6c8.8-8.7,16.3-15.7,16.8-15.7C117.4,50.4,127.4,52.6,139,55.3z M62.6,80.7c10.8,0.9,16.3,1.8,17.3,2.5c0.4,0.3,1.5,3.9,2.4,8c0.9,4,3.4,14,5.4,22.1l3.7,14.7l-3.1,5.4c-6.6,11.4-16.7,28.2-18.1,30.3c-1.1,1.7-1.8,2.2-2.9,2.2c-2.8,0-32.9-5.1-33.2-5.6c-0.2-0.3-2.7-10.2-5.7-22L23,116.8l2.8-4.4c1.6-2.4,7-10.8,12.3-18.8l9.5-14.4l3,0.3C52.2,79.8,57.6,80.3,62.6,80.7z M235.1,88c1.5,4.5,3.1,10.1,3.6,12.5c3.5,16,3.5,35-0.1,51.2c-1.1,5.3-4.4,16.6-4.9,17.2c-0.3,0.3-8.9-4-9.3-4.7c-0.5-0.7-1.8-11.8-3.5-29.2l-1.8-17.6l3.1-16.9c1.7-9.3,3.3-17.5,3.4-18.3c0.3-1.7,1.5-2.3,4.6-2.4l2.2-0.1L235.1,88z M184.6,107.6c8.3,2,18.5,5.6,26.7,9.4l3.9,1.9l0.6,7.6c0.4,4.2,1.3,14.2,2.1,22.3l1.4,14.7l-3.4,4.5c-6.6,8.5-19.6,22-27.9,28.8l-1.7,1.4l-18-6.6c-9.9-3.6-18.1-6.7-18.3-6.9c-0.2-0.2-0.6-3.7-0.9-7.9c-0.7-8.8-1.7-16.5-3.4-27.4l-1.3-8l14.4-14.8c7.9-8.2,15.5-16.1,16.9-17.6c1.3-1.5,2.7-2.7,3.1-2.7C179.2,106.3,181.8,106.9,184.6,107.6z M43.9,166.7c2.7,0.4,9.6,1.4,15.3,2.3l10.4,1.6l3.1,3c3.9,3.9,14.6,16.2,21.4,24.9l5.4,6.8l-1.3,9.2c-0.8,5-1.3,10.4-1.3,11.9c0,1.5-0.2,2.8-0.4,2.9c-0.3,0.2-5.4-0.5-11.5-1.5c-6.1-0.9-13.7-2.1-17-2.5c-7.4-0.9-9.7-2-15.7-7.2c-9.5-8.2-21.6-24.2-21.3-28.1c0.2-2.1,3.8-23.2,4.1-23.7C35.3,165.7,38.5,165.9,43.9,166.7z M169.9,196.9c8.1,3,14.9,5.5,15,5.6c0.5,0.4-3.9,21.5-5.4,26.3l-0.8,2.5l-6.5,3.3c-12.4,6.2-22.5,9.1-31.4,9.1c-4,0-5.3-0.3-13.6-3.1c-10.7-3.5-18.8-6.7-23.2-9l-3.1-1.6l0.3-6.3c0.3-6,2-16,3-18c0.6-1.2,3.7-2.7,11.3-5.8c8.7-3.4,17.4-6.4,25.6-8.9l7.3-2.2l3.4,1.2C153.6,190.8,161.7,193.8,169.9,196.9z"/></g></g></g>
</svg>